<svg width="88" height="91" viewBox="0 0 88 91" fill="none" xmlns="http://www.w3.org/2000/svg">
<g id="Frame 3">
<g id="Ellipse 11">
<path d="M59 12C59 18.6274 53.6274 24 47 24C40.3726 24 35 18.6274 35 12C35 5.37258 40.3726 0 47 0C53.6274 0 59 5.37258 59 12Z" fill="#0B5354"/>
<path d="M59 12C59 18.6274 53.6274 24 47 24C40.3726 24 35 18.6274 35 12C35 5.37258 40.3726 0 47 0C53.6274 0 59 5.37258 59 12Z" fill="#033043"/>
</g>
<g id="Ellipse 12">
<path d="M30 22C30 27.5228 25.5228 32 20 32C14.4772 32 10 27.5228 10 22C10 16.4772 14.4772 12 20 12C25.5228 12 30 16.4772 30 22Z" fill="#0B5354" fill-opacity="0.1"/>
<path d="M30 22C30 27.5228 25.5228 32 20 32C14.4772 32 10 27.5228 10 22C10 16.4772 14.4772 12 20 12C25.5228 12 30 16.4772 30 22Z" fill="#256E8E"/>
</g>
<g id="Ellipse 13">
<path d="M18 48C18 52.9706 13.9706 57 9 57C4.02944 57 0 52.9706 0 48C0 43.0294 4.02944 39 9 39C13.9706 39 18 43.0294 18 48Z" fill="#033043"/>
<path d="M18 48C18 52.9706 13.9706 57 9 57C4.02944 57 0 52.9706 0 48C0 43.0294 4.02944 39 9 39C13.9706 39 18 43.0294 18 48Z" fill="#033043"/>
</g>
<g id="Ellipse 14">
<path d="M29 74C29 78.4183 25.4183 82 21 82C16.5817 82 13 78.4183 13 74C13 69.5817 16.5817 66 21 66C25.4183 66 29 69.5817 29 74Z" fill="#256E8E"/>
<path d="M29 74C29 78.4183 25.4183 82 21 82C16.5817 82 13 78.4183 13 74C13 69.5817 16.5817 66 21 66C25.4183 66 29 69.5817 29 74Z" fill="#256E8E"/>
</g>
<g id="Ellipse 15">
<path d="M53 84.5C53 88.0899 50.0899 91 46.5 91C42.9101 91 40 88.0899 40 84.5C40 80.9101 42.9101 78 46.5 78C50.0899 78 53 80.9101 53 84.5Z" fill="#033043"/>
<path d="M53 84.5C53 88.0899 50.0899 91 46.5 91C42.9101 91 40 88.0899 40 84.5C40 80.9101 42.9101 78 46.5 78C50.0899 78 53 80.9101 53 84.5Z" fill="#033043"/>
</g>
<g id="Ellipse 16">
<path d="M78 73.5C78 76.5376 75.5376 79 72.5 79C69.4624 79 67 76.5376 67 73.5C67 70.4624 69.4624 68 72.5 68C75.5376 68 78 70.4624 78 73.5Z" fill="#256E8E"/>
<path d="M78 73.5C78 76.5376 75.5376 79 72.5 79C69.4624 79 67 76.5376 67 73.5C67 70.4624 69.4624 68 72.5 68C75.5376 68 78 70.4624 78 73.5Z" fill="#256E8E"/>
</g>
<g id="Ellipse 17">
<path d="M88 47.5C88 49.9853 85.9853 52 83.5 52C81.0147 52 79 49.9853 79 47.5C79 45.0147 81.0147 43 83.5 43C85.9853 43 88 45.0147 88 47.5Z" fill="#033043"/>
<path d="M88 47.5C88 49.9853 85.9853 52 83.5 52C81.0147 52 79 49.9853 79 47.5C79 45.0147 81.0147 43 83.5 43C85.9853 43 88 45.0147 88 47.5Z" fill="#033043"/>
</g>
<g id="Ellipse 18">
<path d="M76 21.5C76 23.433 74.433 25 72.5 25C70.567 25 69 23.433 69 21.5C69 19.567 70.567 18 72.5 18C74.433 18 76 19.567 76 21.5Z" fill="#0B5354" fill-opacity="0.05"/>
<path d="M76 21.5C76 23.433 74.433 25 72.5 25C70.567 25 69 23.433 69 21.5C69 19.567 70.567 18 72.5 18C74.433 18 76 19.567 76 21.5Z" fill="#256E8E"/>
</g>
</g>
</svg>
